<svg viewBox="0 0 19.9138 22" fill="none" xmlns="http://www.w3.org/2000/svg"
  xmlns:xlink="http://www.w3.org/1999/xlink">
  <defs />
  <path id="Icon"
    d="M7.93469 19.6856C8.1084 20.0768 8.39197 20.4093 8.75085 20.6426C9.10986 20.8759 9.52881 21.0001 9.95691 21C10.385 21.0001 10.804 20.8759 11.163 20.6426C11.5219 20.4093 11.8054 20.0768 11.9791 19.6856L12.5636 18.3711C12.7716 17.9047 13.1216 17.5159 13.5636 17.26C14.0083 17.0034 14.5229 16.8941 15.0336 16.9478L16.4636 17.1C16.8893 17.145 17.3188 17.0656 17.7003 16.8713C18.0817 16.6771 18.3986 16.3763 18.6124 16.0056C18.8267 15.635 18.9287 15.2103 18.9062 14.7829C18.8837 14.3555 18.7377 13.9438 18.4858 13.5978L17.6392 12.4344C17.3376 12.0171 17.1765 11.5148 17.1791 11C17.1791 10.4866 17.3417 9.98636 17.6436 9.57111L18.4902 8.40778C18.7421 8.06177 18.8882 7.65005 18.9106 7.22269C18.9331 6.79529 18.8311 6.37054 18.6169 6C18.403 5.62924 18.0862 5.32849 17.7047 5.13422C17.3232 4.93997 16.8937 4.86053 16.468 4.90555L15.038 5.05777C14.5273 5.11142 14.0128 5.00214 13.568 4.74554C13.1251 4.48825 12.7751 4.09735 12.568 3.62888L11.9791 2.31445C11.8054 1.92316 11.5219 1.59073 11.163 1.35739C10.804 1.12408 10.385 0.999939 9.95691 1C9.52881 0.999939 9.10986 1.12408 8.75085 1.35739C8.39197 1.59073 8.1084 1.92316 7.93469 2.31445L7.35022 3.62888C7.14319 4.09735 6.79309 4.48825 6.35022 4.74554C5.90552 5.00214 5.39087 5.11142 4.88025 5.05777L3.4458 4.90555C3.02014 4.86053 2.59058 4.93997 2.20911 5.13422C1.82764 5.32849 1.51086 5.62924 1.29688 6C1.08276 6.37054 0.980713 6.79529 1.00317 7.22269C1.02563 7.65005 1.17175 8.06177 1.42358 8.40778L2.27026 9.57111C2.57214 9.98636 2.73474 10.4866 2.73474 11C2.73474 11.5134 2.57214 12.0137 2.27026 12.4289L1.42358 13.5922C1.17175 13.9382 1.02563 14.3499 1.00317 14.7773C0.980713 15.2047 1.08276 15.6295 1.29688 16C1.51099 16.3706 1.82788 16.6712 2.20935 16.8654C2.5907 17.0596 3.02014 17.1392 3.4458 17.0945L4.87585 16.9422C5.38647 16.8886 5.901 16.9979 6.34583 17.2544C6.79028 17.511 7.14197 17.902 7.35022 18.3711L7.93469 19.6856ZM9.95508 14C8.29822 14 6.95508 12.6569 6.95508 11C6.95508 9.34314 8.29822 8 9.95508 8C11.6119 8 12.9551 9.34314 12.9551 11C12.9551 12.6569 11.6119 14 9.95508 14Z"
    stroke="currentColor" stroke-opacity="1.000000" stroke-width="2.000000" stroke-linejoin="round" />
</svg>