<svg viewBox="0 0 22 20" fill="none" xmlns="http://www.w3.org/2000/svg"
  xmlns:xlink="http://www.w3.org/1999/xlink">
  <defs />
  <path id="Icon"
    d="M18 19L18 13M15 16L21 16M1 19C1 17.1362 1 16.2043 1.30444 15.4693C1.71045 14.4892 2.48914 13.7104 3.46924 13.3045C4.20435 13 5.13623 13 7 13L11 13M8.5 9C6.29089 9 4.5 7.20914 4.5 5C4.5 2.79086 6.29089 1 8.5 1C10.7091 1 12.5 2.79086 12.5 5C12.5 7.20914 10.7091 9 8.5 9ZM14.5 1.29077C15.9659 1.88416 17 3.32132 17 5C17 6.67868 15.9659 8.11584 14.5 8.70923"
    stroke="currentColor" stroke-opacity="1.000000" stroke-width="2.000000" stroke-linejoin="round" />
</svg>